  0
SECTION
  2
HEADER
  9
$ACADVER
  1
AC1009
  9
$FILLMODE
 70
 0
  9
$SPLFRAME
 70
 1
  9
$EXTMIN
 10
0
 20
0
 30
0.0
  9
$EXTMAX
 10
1058.33
 20
1058.33
 30
0.0
  0
ENDSEC
  0
SECTION
  2
TABLES
  0
TABLE
  2
LAYER
 70
1
  0
LAYER
  2
0
 70
     0
 62
     7
  6
CONTINUOUS
  0
ENDTAB
  0
ENDSEC
  0
SECTION
  2
ENTITIES
  0
LINE
  8
0
 62
     0
 10
0.0950846
 20
129.021
 30
0.0
 11
314.42
 21
129.021
 31
0.0
  0
LINE
  8
0
 62
     0
 10
314.42
 20
129.021
 30
0.0
 11
314.42
 21
0.434082
 31
0.0
  0
LINE
  8
0
 62
     0
 10
314.42
 20
0.434082
 30
0.0
 11
0.0950846
 21
0.434082
 31
0.0
  0
LINE
  8
0
 62
     0
 10
0.0950846
 20
0.434082
 30
0.0
 11
0.0950846
 21
129.021
 31
0.0
  0
LINE
  8
0
 62
     0
 10
255.032
 20
16.9595
 30
0.0
 11
269.032
 21
16.9595
 31
0.0
  0
LINE
  8
0
 62
     0
 10
269.032
 20
16.9595
 30
0.0
 11
269.032
 21
2.96003
 31
0.0
  0
LINE
  8
0
 62
     0
 10
269.032
 20
2.96003
 30
0.0
 11
255.032
 21
2.96003
 31
0.0
  0
LINE
  8
0
 62
     0
 10
255.032
 20
2.96003
 30
0.0
 11
255.032
 21
16.9595
 31
0.0
  0
LINE
  8
0
 62
     0
 10
274.082
 20
16.9595
 30
0.0
 11
288.082
 21
16.9595
 31
0.0
  0
LINE
  8
0
 62
     0
 10
288.082
 20
16.9595
 30
0.0
 11
288.082
 21
2.96003
 31
0.0
  0
LINE
  8
0
 62
     0
 10
288.082
 20
2.96003
 30
0.0
 11
274.082
 21
2.96003
 31
0.0
  0
LINE
  8
0
 62
     0
 10
274.082
 20
2.96003
 30
0.0
 11
274.082
 21
16.9595
 31
0.0
  0
LINE
  8
0
 62
     0
 10
293.132
 20
16.9595
 30
0.0
 11
307.132
 21
16.9595
 31
0.0
  0
LINE
  8
0
 62
     0
 10
307.132
 20
16.9595
 30
0.0
 11
307.132
 21
2.96003
 31
0.0
  0
LINE
  8
0
 62
     0
 10
307.132
 20
2.96003
 30
0.0
 11
293.132
 21
2.96003
 31
0.0
  0
LINE
  8
0
 62
     0
 10
293.132
 20
2.96003
 30
0.0
 11
293.132
 21
16.9595
 31
0.0
  0
LINE
  8
0
 62
     0
 10
124.062
 20
21.722
 30
0.0
 11
124.062
 21
17.0215
 31
0.0
  0
LINE
  8
0
 62
     0
 10
124.062
 20
17.0215
 30
0.0
 11
84.4381
 21
17.0215
 31
0.0
  0
LINE
  8
0
 62
     0
 10
84.4381
 20
17.0215
 30
0.0
 11
84.4381
 21
20.2517
 31
0.0
  0
LINE
  8
0
 62
     0
 10
84.4381
 20
20.2517
 30
0.0
 11
82.7126
 21
20.2517
 31
0.0
  0
LINE
  8
0
 62
     0
 10
82.7126
 20
20.2517
 30
0.0
 11
82.7126
 21
21.1722
 31
0.0
  0
LINE
  8
0
 62
     0
 10
82.7126
 20
21.1722
 30
0.0
 11
79.412
 21
21.1722
 31
0.0
  0
LINE
  8
0
 62
     0
 10
79.412
 20
21.1722
 30
0.0
 11
79.412
 21
20.2517
 31
0.0
  0
LINE
  8
0
 62
     0
 10
79.412
 20
20.2517
 30
0.0
 11
77.687
 21
20.2517
 31
0.0
  0
LINE
  8
0
 62
     0
 10
77.687
 20
20.2517
 30
0.0
 11
77.687
 21
17.0215
 31
0.0
  0
LINE
  8
0
 62
     0
 10
77.687
 20
17.0215
 30
0.0
 11
76.8629
 21
17.0215
 31
0.0
  0
LINE
  8
0
 62
     0
 10
76.8629
 20
17.0215
 30
0.0
 11
76.8629
 21
14.2227
 31
0.0
  0
LINE
  8
0
 62
     0
 10
76.8629
 20
14.2227
 30
0.0
 11
77.687
 21
14.2227
 31
0.0
  0
LINE
  8
0
 62
     0
 10
77.687
 20
14.2227
 30
0.0
 11
77.687
 21
7.95267
 31
0.0
  0
LINE
  8
0
 62
     0
 10
77.687
 20
7.95267
 30
0.0
 11
79.412
 21
7.95267
 31
0.0
  0
LINE
  8
0
 62
     0
 10
79.412
 20
7.95267
 30
0.0
 11
79.412
 21
6.97149
 31
0.0
  0
LINE
  8
0
 62
     0
 10
79.412
 20
6.97149
 30
0.0
 11
82.7126
 21
6.97149
 31
0.0
  0
LINE
  8
0
 62
     0
 10
82.7126
 20
6.97149
 30
0.0
 11
82.7126
 21
7.95267
 31
0.0
  0
LINE
  8
0
 62
     0
 10
82.7126
 20
7.95267
 30
0.0
 11
84.4381
 21
7.95267
 31
0.0
  0
LINE
  8
0
 62
     0
 10
84.4381
 20
7.95267
 30
0.0
 11
84.4381
 21
12.4216
 31
0.0
  0
LINE
  8
0
 62
     0
 10
84.4381
 20
12.4216
 30
0.0
 11
124.062
 21
12.4216
 31
0.0
  0
LINE
  8
0
 62
     0
 10
124.062
 20
12.4216
 30
0.0
 11
124.062
 21
7.72252
 31
0.0
  0
LINE
  8
0
 62
     0
 10
124.062
 20
7.72252
 30
0.0
 11
138.063
 21
7.72252
 31
0.0
  0
LINE
  8
0
 62
     0
 10
138.063
 20
7.72252
 30
0.0
 11
138.063
 21
12.4216
 31
0.0
  0
LINE
  8
0
 62
     0
 10
138.063
 20
12.4216
 30
0.0
 11
177.687
 21
12.4216
 31
0.0
  0
LINE
  8
0
 62
     0
 10
177.687
 20
12.4216
 30
0.0
 11
177.687
 21
7.95267
 31
0.0
  0
LINE
  8
0
 62
     0
 10
177.687
 20
7.95267
 30
0.0
 11
179.412
 21
7.95267
 31
0.0
  0
LINE
  8
0
 62
     0
 10
179.412
 20
7.95267
 30
0.0
 11
179.412
 21
6.97149
 31
0.0
  0
LINE
  8
0
 62
     0
 10
179.412
 20
6.97149
 30
0.0
 11
182.713
 21
6.97149
 31
0.0
  0
LINE
  8
0
 62
     0
 10
182.713
 20
6.97149
 30
0.0
 11
182.713
 21
7.95267
 31
0.0
  0
LINE
  8
0
 62
     0
 10
182.713
 20
7.95267
 30
0.0
 11
184.438
 21
7.95267
 31
0.0
  0
LINE
  8
0
 62
     0
 10
184.438
 20
7.95267
 30
0.0
 11
184.438
 21
14.2227
 31
0.0
  0
LINE
  8
0
 62
     0
 10
184.438
 20
14.2227
 30
0.0
 11
185.262
 21
14.2227
 31
0.0
  0
LINE
  8
0
 62
     0
 10
185.262
 20
14.2227
 30
0.0
 11
185.262
 21
17.0215
 31
0.0
  0
LINE
  8
0
 62
     0
 10
185.262
 20
17.0215
 30
0.0
 11
184.438
 21
17.0215
 31
0.0
  0
LINE
  8
0
 62
     0
 10
184.438
 20
17.0215
 30
0.0
 11
184.438
 21
20.2517
 31
0.0
  0
LINE
  8
0
 62
     0
 10
184.438
 20
20.2517
 30
0.0
 11
182.713
 21
20.2517
 31
0.0
  0
LINE
  8
0
 62
     0
 10
182.713
 20
20.2517
 30
0.0
 11
182.713
 21
21.1722
 31
0.0
  0
LINE
  8
0
 62
     0
 10
182.713
 20
21.1722
 30
0.0
 11
179.412
 21
21.1722
 31
0.0
  0
LINE
  8
0
 62
     0
 10
179.412
 20
21.1722
 30
0.0
 11
179.412
 21
20.2517
 31
0.0
  0
LINE
  8
0
 62
     0
 10
179.412
 20
20.2517
 30
0.0
 11
177.687
 21
20.2517
 31
0.0
  0
LINE
  8
0
 62
     0
 10
177.687
 20
20.2517
 30
0.0
 11
177.687
 21
17.0215
 31
0.0
  0
LINE
  8
0
 62
     0
 10
177.687
 20
17.0215
 30
0.0
 11
138.063
 21
17.0215
 31
0.0
  0
LINE
  8
0
 62
     0
 10
138.063
 20
17.0215
 30
0.0
 11
138.063
 21
21.722
 31
0.0
  0
LINE
  8
0
 62
     0
 10
138.063
 20
21.722
 30
0.0
 11
124.062
 21
21.722
 31
0.0
  0
LINE
  8
0
 62
     0
 10
5.00091
 20
21.722
 30
0.0
 11
19.0004
 21
21.722
 31
0.0
  0
LINE
  8
0
 62
     0
 10
19.0004
 20
21.722
 30
0.0
 11
19.0004
 21
7.72252
 31
0.0
  0
LINE
  8
0
 62
     0
 10
19.0004
 20
7.72252
 30
0.0
 11
5.00091
 21
7.72252
 31
0.0
  0
LINE
  8
0
 62
     0
 10
5.00091
 20
7.72252
 30
0.0
 11
5.00091
 21
21.722
 31
0.0
  0
LINE
  8
0
 62
     0
 10
28.812
 20
21.722
 30
0.0
 11
42.8128
 21
21.722
 31
0.0
  0
LINE
  8
0
 62
     0
 10
42.8128
 20
21.722
 30
0.0
 11
42.8128
 21
7.72252
 31
0.0
  0
LINE
  8
0
 62
     0
 10
42.8128
 20
7.72252
 30
0.0
 11
28.812
 21
7.72252
 31
0.0
  0
LINE
  8
0
 62
     0
 10
28.812
 20
7.72252
 30
0.0
 11
28.812
 21
21.722
 31
0.0
  0
LINE
  8
0
 62
     0
 10
52.626
 20
21.722
 30
0.0
 11
66.6253
 21
21.722
 31
0.0
  0
LINE
  8
0
 62
     0
 10
66.6253
 20
21.722
 30
0.0
 11
66.6253
 21
7.72252
 31
0.0
  0
LINE
  8
0
 62
     0
 10
66.6253
 20
7.72252
 30
0.0
 11
52.626
 21
7.72252
 31
0.0
  0
LINE
  8
0
 62
     0
 10
52.626
 20
7.72252
 30
0.0
 11
52.626
 21
21.722
 31
0.0
  0
LINE
  8
0
 62
     0
 10
193.12
 20
21.722
 30
0.0
 11
207.119
 21
21.722
 31
0.0
  0
LINE
  8
0
 62
     0
 10
207.119
 20
21.722
 30
0.0
 11
207.119
 21
7.72252
 31
0.0
  0
LINE
  8
0
 62
     0
 10
207.119
 20
7.72252
 30
0.0
 11
193.12
 21
7.72252
 31
0.0
  0
LINE
  8
0
 62
     0
 10
193.12
 20
7.72252
 30
0.0
 11
193.12
 21
21.722
 31
0.0
  0
LINE
  8
0
 62
     0
 10
212.17
 20
21.722
 30
0.0
 11
226.169
 21
21.722
 31
0.0
  0
LINE
  8
0
 62
     0
 10
226.169
 20
21.722
 30
0.0
 11
226.169
 21
7.72252
 31
0.0
  0
LINE
  8
0
 62
     0
 10
226.169
 20
7.72252
 30
0.0
 11
212.17
 21
7.72252
 31
0.0
  0
LINE
  8
0
 62
     0
 10
212.17
 20
7.72252
 30
0.0
 11
212.17
 21
21.722
 31
0.0
  0
LINE
  8
0
 62
     0
 10
231.22
 20
21.722
 30
0.0
 11
245.219
 21
21.722
 31
0.0
  0
LINE
  8
0
 62
     0
 10
245.219
 20
21.722
 30
0.0
 11
245.219
 21
7.72252
 31
0.0
  0
LINE
  8
0
 62
     0
 10
245.219
 20
7.72252
 30
0.0
 11
231.22
 21
7.72252
 31
0.0
  0
LINE
  8
0
 62
     0
 10
231.22
 20
7.72252
 30
0.0
 11
231.22
 21
21.722
 31
0.0
  0
LINE
  8
0
 62
     0
 10
274.082
 20
36.0094
 30
0.0
 11
288.082
 21
36.0094
 31
0.0
  0
LINE
  8
0
 62
     0
 10
288.082
 20
36.0094
 30
0.0
 11
288.082
 21
22.01
 31
0.0
  0
LINE
  8
0
 62
     0
 10
288.082
 20
22.01
 30
0.0
 11
274.082
 21
22.01
 31
0.0
  0
LINE
  8
0
 62
     0
 10
274.082
 20
22.01
 30
0.0
 11
274.082
 21
36.0094
 31
0.0
  0
LINE
  8
0
 62
     0
 10
14.5259
 20
40.7719
 30
0.0
 11
14.5259
 21
36.0715
 31
0.0
  0
LINE
  8
0
 62
     0
 10
14.5259
 20
36.0715
 30
0.0
 11
13.0004
 21
36.0715
 31
0.0
  0
LINE
  8
0
 62
     0
 10
13.0004
 20
36.0715
 30
0.0
 11
13.0004
 21
39.3016
 31
0.0
  0
LINE
  8
0
 62
     0
 10
13.0004
 20
39.3016
 30
0.0
 11
11.2751
 21
39.3016
 31
0.0
  0
LINE
  8
0
 62
     0
 10
11.2751
 20
39.3016
 30
0.0
 11
11.2751
 21
40.2223
 31
0.0
  0
LINE
  8
0
 62
     0
 10
11.2751
 20
40.2223
 30
0.0
 11
7.97609
 21
40.2223
 31
0.0
  0
LINE
  8
0
 62
     0
 10
7.97609
 20
40.2223
 30
0.0
 11
7.97609
 21
39.3016
 31
0.0
  0
LINE
  8
0
 62
     0
 10
7.97609
 20
39.3016
 30
0.0
 11
6.2508
 21
39.3016
 31
0.0
  0
LINE
  8
0
 62
     0
 10
6.2508
 20
39.3016
 30
0.0
 11
6.2508
 21
36.0715
 31
0.0
  0
LINE
  8
0
 62
     0
 10
6.2508
 20
36.0715
 30
0.0
 11
5.42533
 21
36.0715
 31
0.0
  0
LINE
  8
0
 62
     0
 10
5.42533
 20
36.0715
 30
0.0
 11
5.42533
 21
33.2727
 31
0.0
  0
LINE
  8
0
 62
     0
 10
5.42533
 20
33.2727
 30
0.0
 11
6.2508
 21
33.2727
 31
0.0
  0
LINE
  8
0
 62
     0
 10
6.2508
 20
33.2727
 30
0.0
 11
6.2508
 21
27.0027
 31
0.0
  0
LINE
  8
0
 62
     0
 10
6.2508
 20
27.0027
 30
0.0
 11
7.97609
 21
27.0027
 31
0.0
  0
LINE
  8
0
 62
     0
 10
7.97609
 20
27.0027
 30
0.0
 11
7.97609
 21
26.0215
 31
0.0
  0
LINE
  8
0
 62
     0
 10
7.97609
 20
26.0215
 30
0.0
 11
11.2751
 21
26.0215
 31
0.0
  0
LINE
  8
0
 62
     0
 10
11.2751
 20
26.0215
 30
0.0
 11
11.2751
 21
27.0027
 31
0.0
  0
LINE
  8
0
 62
     0
 10
11.2751
 20
27.0027
 30
0.0
 11
13.0004
 21
27.0027
 31
0.0
  0
LINE
  8
0
 62
     0
 10
13.0004
 20
27.0027
 30
0.0
 11
13.0004
 21
31.4716
 31
0.0
  0
LINE
  8
0
 62
     0
 10
13.0004
 20
31.4716
 30
0.0
 11
14.5259
 21
31.4716
 31
0.0
  0
LINE
  8
0
 62
     0
 10
14.5259
 20
31.4716
 30
0.0
 11
14.5259
 21
26.7725
 31
0.0
  0
LINE
  8
0
 62
     0
 10
14.5259
 20
26.7725
 30
0.0
 11
28.5254
 21
26.7725
 31
0.0
  0
LINE
  8
0
 62
     0
 10
28.5254
 20
26.7725
 30
0.0
 11
28.5254
 21
31.4716
 31
0.0
  0
LINE
  8
0
 62
     0
 10
28.5254
 20
31.4716
 30
0.0
 11
30.0509
 21
31.4716
 31
0.0
  0
LINE
  8
0
 62
     0
 10
30.0509
 20
31.4716
 30
0.0
 11
30.0509
 21
27.0027
 31
0.0
  0
LINE
  8
0
 62
     0
 10
30.0509
 20
27.0027
 30
0.0
 11
31.7748
 21
27.0027
 31
0.0
  0
LINE
  8
0
 62
     0
 10
31.7748
 20
27.0027
 30
0.0
 11
31.7748
 21
26.0215
 31
0.0
  0
LINE
  8
0
 62
     0
 10
31.7748
 20
26.0215
 30
0.0
 11
35.0752
 21
26.0215
 31
0.0
  0
LINE
  8
0
 62
     0
 10
35.0752
 20
26.0215
 30
0.0
 11
35.0752
 21
27.0027
 31
0.0
  0
LINE
  8
0
 62
     0
 10
35.0752
 20
27.0027
 30
0.0
 11
36.8004
 21
27.0027
 31
0.0
  0
LINE
  8
0
 62
     0
 10
36.8004
 20
27.0027
 30
0.0
 11
36.8004
 21
33.2727
 31
0.0
  0
LINE
  8
0
 62
     0
 10
36.8004
 20
33.2727
 30
0.0
 11
37.6259
 21
33.2727
 31
0.0
  0
LINE
  8
0
 62
     0
 10
37.6259
 20
33.2727
 30
0.0
 11
37.6259
 21
36.0715
 31
0.0
  0
LINE
  8
0
 62
     0
 10
37.6259
 20
36.0715
 30
0.0
 11
36.8004
 21
36.0715
 31
0.0
  0
LINE
  8
0
 62
     0
 10
36.8004
 20
36.0715
 30
0.0
 11
36.8004
 21
39.3016
 31
0.0
  0
LINE
  8
0
 62
     0
 10
36.8004
 20
39.3016
 30
0.0
 11
35.0752
 21
39.3016
 31
0.0
  0
LINE
  8
0
 62
     0
 10
35.0752
 20
39.3016
 30
0.0
 11
35.0752
 21
40.2223
 31
0.0
  0
LINE
  8
0
 62
     0
 10
35.0752
 20
40.2223
 30
0.0
 11
31.7748
 21
40.2223
 31
0.0
  0
LINE
  8
0
 62
     0
 10
31.7748
 20
40.2223
 30
0.0
 11
31.7748
 21
39.3016
 31
0.0
  0
LINE
  8
0
 62
     0
 10
31.7748
 20
39.3016
 30
0.0
 11
30.0509
 21
39.3016
 31
0.0
  0
LINE
  8
0
 62
     0
 10
30.0509
 20
39.3016
 30
0.0
 11
30.0509
 21
36.0715
 31
0.0
  0
LINE
  8
0
 62
     0
 10
30.0509
 20
36.0715
 30
0.0
 11
28.5254
 21
36.0715
 31
0.0
  0
LINE
  8
0
 62
     0
 10
28.5254
 20
36.0715
 30
0.0
 11
28.5254
 21
40.7719
 31
0.0
  0
LINE
  8
0
 62
     0
 10
28.5254
 20
40.7719
 30
0.0
 11
14.5259
 21
40.7719
 31
0.0
  0
LINE
  8
0
 62
     0
 10
45.4822
 20
40.7719
 30
0.0
 11
59.4815
 21
40.7719
 31
0.0
  0
LINE
  8
0
 62
     0
 10
59.4815
 20
40.7719
 30
0.0
 11
59.4815
 21
26.7725
 31
0.0
  0
LINE
  8
0
 62
     0
 10
59.4815
 20
26.7725
 30
0.0
 11
45.4822
 21
26.7725
 31
0.0
  0
LINE
  8
0
 62
     0
 10
45.4822
 20
26.7725
 30
0.0
 11
45.4822
 21
40.7719
 31
0.0
  0
LINE
  8
0
 62
     0
 10
64.5322
 20
40.7719
 30
0.0
 11
78.5315
 21
40.7719
 31
0.0
  0
LINE
  8
0
 62
     0
 10
78.5315
 20
40.7719
 30
0.0
 11
78.5315
 21
26.7725
 31
0.0
  0
LINE
  8
0
 62
     0
 10
78.5315
 20
26.7725
 30
0.0
 11
64.5322
 21
26.7725
 31
0.0
  0
LINE
  8
0
 62
     0
 10
64.5322
 20
26.7725
 30
0.0
 11
64.5322
 21
40.7719
 31
0.0
  0
LINE
  8
0
 62
     0
 10
83.5822
 20
40.7719
 30
0.0
 11
97.5815
 21
40.7719
 31
0.0
  0
LINE
  8
0
 62
     0
 10
97.5815
 20
40.7719
 30
0.0
 11
97.5815
 21
26.7725
 31
0.0
  0
LINE
  8
0
 62
     0
 10
97.5815
 20
26.7725
 30
0.0
 11
83.5822
 21
26.7725
 31
0.0
  0
LINE
  8
0
 62
     0
 10
83.5822
 20
26.7725
 30
0.0
 11
83.5822
 21
40.7719
 31
0.0
  0
LINE
  8
0
 62
     0
 10
102.632
 20
40.7719
 30
0.0
 11
116.632
 21
40.7719
 31
0.0
  0
LINE
  8
0
 62
     0
 10
116.632
 20
40.7719
 30
0.0
 11
116.632
 21
26.7725
 31
0.0
  0
LINE
  8
0
 62
     0
 10
116.632
 20
26.7725
 30
0.0
 11
102.632
 21
26.7725
 31
0.0
  0
LINE
  8
0
 62
     0
 10
102.632
 20
26.7725
 30
0.0
 11
102.632
 21
40.7719
 31
0.0
  0
LINE
  8
0
 62
     0
 10
121.682
 20
40.7719
 30
0.0
 11
135.682
 21
40.7719
 31
0.0
  0
LINE
  8
0
 62
     0
 10
135.682
 20
40.7719
 30
0.0
 11
135.682
 21
26.7725
 31
0.0
  0
LINE
  8
0
 62
     0
 10
135.682
 20
26.7725
 30
0.0
 11
121.682
 21
26.7725
 31
0.0
  0
LINE
  8
0
 62
     0
 10
121.682
 20
26.7725
 30
0.0
 11
121.682
 21
40.7719
 31
0.0
  0
LINE
  8
0
 62
     0
 10
140.732
 20
40.7719
 30
0.0
 11
154.732
 21
40.7719
 31
0.0
  0
LINE
  8
0
 62
     0
 10
154.732
 20
40.7719
 30
0.0
 11
154.732
 21
26.7725
 31
0.0
  0
LINE
  8
0
 62
     0
 10
154.732
 20
26.7725
 30
0.0
 11
140.732
 21
26.7725
 31
0.0
  0
LINE
  8
0
 62
     0
 10
140.732
 20
26.7725
 30
0.0
 11
140.732
 21
40.7719
 31
0.0
  0
LINE
  8
0
 62
     0
 10
159.782
 20
40.7719
 30
0.0
 11
173.782
 21
40.7719
 31
0.0
  0
LINE
  8
0
 62
     0
 10
173.782
 20
40.7719
 30
0.0
 11
173.782
 21
26.7725
 31
0.0
  0
LINE
  8
0
 62
     0
 10
173.782
 20
26.7725
 30
0.0
 11
159.782
 21
26.7725
 31
0.0
  0
LINE
  8
0
 62
     0
 10
159.782
 20
26.7725
 30
0.0
 11
159.782
 21
40.7719
 31
0.0
  0
LINE
  8
0
 62
     0
 10
178.832
 20
40.7719
 30
0.0
 11
192.832
 21
40.7719
 31
0.0
  0
LINE
  8
0
 62
     0
 10
192.832
 20
40.7719
 30
0.0
 11
192.832
 21
26.7725
 31
0.0
  0
LINE
  8
0
 62
     0
 10
192.832
 20
26.7725
 30
0.0
 11
178.832
 21
26.7725
 31
0.0
  0
LINE
  8
0
 62
     0
 10
178.832
 20
26.7725
 30
0.0
 11
178.832
 21
40.7719
 31
0.0
  0
LINE
  8
0
 62
     0
 10
197.882
 20
40.7719
 30
0.0
 11
211.882
 21
40.7719
 31
0.0
  0
LINE
  8
0
 62
     0
 10
211.882
 20
40.7719
 30
0.0
 11
211.882
 21
26.7725
 31
0.0
  0
LINE
  8
0
 62
     0
 10
211.882
 20
26.7725
 30
0.0
 11
197.882
 21
26.7725
 31
0.0
  0
LINE
  8
0
 62
     0
 10
197.882
 20
26.7725
 30
0.0
 11
197.882
 21
40.7719
 31
0.0
  0
LINE
  8
0
 62
     0
 10
216.932
 20
40.7719
 30
0.0
 11
230.932
 21
40.7719
 31
0.0
  0
LINE
  8
0
 62
     0
 10
230.932
 20
40.7719
 30
0.0
 11
230.932
 21
26.7725
 31
0.0
  0
LINE
  8
0
 62
     0
 10
230.932
 20
26.7725
 30
0.0
 11
216.932
 21
26.7725
 31
0.0
  0
LINE
  8
0
 62
     0
 10
216.932
 20
26.7725
 30
0.0
 11
216.932
 21
40.7719
 31
0.0
  0
LINE
  8
0
 62
     0
 10
243.126
 20
40.7719
 30
0.0
 11
257.125
 21
40.7719
 31
0.0
  0
LINE
  8
0
 62
     0
 10
257.125
 20
40.7719
 30
0.0
 11
257.125
 21
26.7725
 31
0.0
  0
LINE
  8
0
 62
     0
 10
257.125
 20
26.7725
 30
0.0
 11
243.126
 21
26.7725
 31
0.0
  0
LINE
  8
0
 62
     0
 10
243.126
 20
26.7725
 30
0.0
 11
243.126
 21
40.7719
 31
0.0
  0
LINE
  8
0
 62
     0
 10
257.412
 20
59.8219
 30
0.0
 11
257.412
 21
55.1215
 31
0.0
  0
LINE
  8
0
 62
     0
 10
257.412
 20
55.1215
 30
0.0
 11
255.888
 21
55.1215
 31
0.0
  0
LINE
  8
0
 62
     0
 10
255.888
 20
55.1215
 30
0.0
 11
255.888
 21
58.3516
 31
0.0
  0
LINE
  8
0
 62
     0
 10
255.888
 20
58.3516
 30
0.0
 11
254.161
 21
58.3516
 31
0.0
  0
LINE
  8
0
 62
     0
 10
254.161
 20
58.3516
 30
0.0
 11
254.161
 21
59.2723
 31
0.0
  0
LINE
  8
0
 62
     0
 10
254.161
 20
59.2723
 30
0.0
 11
250.862
 21
59.2723
 31
0.0
  0
LINE
  8
0
 62
     0
 10
250.862
 20
59.2723
 30
0.0
 11
250.862
 21
58.3516
 31
0.0
  0
LINE
  8
0
 62
     0
 10
250.862
 20
58.3516
 30
0.0
 11
249.137
 21
58.3516
 31
0.0
  0
LINE
  8
0
 62
     0
 10
249.137
 20
58.3516
 30
0.0
 11
249.137
 21
55.1215
 31
0.0
  0
LINE
  8
0
 62
     0
 10
249.137
 20
55.1215
 30
0.0
 11
248.313
 21
55.1215
 31
0.0
  0
LINE
  8
0
 62
     0
 10
248.313
 20
55.1215
 30
0.0
 11
248.313
 21
52.3226
 31
0.0
  0
LINE
  8
0
 62
     0
 10
248.313
 20
52.3226
 30
0.0
 11
249.137
 21
52.3226
 31
0.0
  0
LINE
  8
0
 62
     0
 10
249.137
 20
52.3226
 30
0.0
 11
249.137
 21
46.0527
 31
0.0
  0
LINE
  8
0
 62
     0
 10
249.137
 20
46.0527
 30
0.0
 11
250.862
 21
46.0527
 31
0.0
  0
LINE
  8
0
 62
     0
 10
250.862
 20
46.0527
 30
0.0
 11
250.862
 21
45.0716
 31
0.0
  0
LINE
  8
0
 62
     0
 10
250.862
 20
45.0716
 30
0.0
 11
254.161
 21
45.0716
 31
0.0
  0
LINE
  8
0
 62
     0
 10
254.161
 20
45.0716
 30
0.0
 11
254.161
 21
46.0527
 31
0.0
  0
LINE
  8
0
 62
     0
 10
254.161
 20
46.0527
 30
0.0
 11
255.888
 21
46.0527
 31
0.0
  0
LINE
  8
0
 62
     0
 10
255.888
 20
46.0527
 30
0.0
 11
255.888
 21
50.5217
 31
0.0
  0
LINE
  8
0
 62
     0
 10
255.888
 20
50.5217
 30
0.0
 11
257.412
 21
50.5217
 31
0.0
  0
LINE
  8
0
 62
     0
 10
257.412
 20
50.5217
 30
0.0
 11
257.412
 21
45.8227
 31
0.0
  0
LINE
  8
0
 62
     0
 10
257.412
 20
45.8227
 30
0.0
 11
271.413
 21
45.8227
 31
0.0
  0
LINE
  8
0
 62
     0
 10
271.413
 20
45.8227
 30
0.0
 11
271.413
 21
50.5217
 31
0.0
  0
LINE
  8
0
 62
     0
 10
271.413
 20
50.5217
 30
0.0
 11
272.937
 21
50.5217
 31
0.0
  0
LINE
  8
0
 62
     0
 10
272.937
 20
50.5217
 30
0.0
 11
272.937
 21
46.0527
 31
0.0
  0
LINE
  8
0
 62
     0
 10
272.937
 20
46.0527
 30
0.0
 11
274.662
 21
46.0527
 31
0.0
  0
LINE
  8
0
 62
     0
 10
274.662
 20
46.0527
 30
0.0
 11
274.662
 21
45.0716
 31
0.0
  0
LINE
  8
0
 62
     0
 10
274.662
 20
45.0716
 30
0.0
 11
277.963
 21
45.0716
 31
0.0
  0
LINE
  8
0
 62
     0
 10
277.963
 20
45.0716
 30
0.0
 11
277.963
 21
46.0527
 31
0.0
  0
LINE
  8
0
 62
     0
 10
277.963
 20
46.0527
 30
0.0
 11
279.688
 21
46.0527
 31
0.0
  0
LINE
  8
0
 62
     0
 10
279.688
 20
46.0527
 30
0.0
 11
279.688
 21
52.3226
 31
0.0
  0
LINE
  8
0
 62
     0
 10
279.688
 20
52.3226
 30
0.0
 11
280.512
 21
52.3226
 31
0.0
  0
LINE
  8
0
 62
     0
 10
280.512
 20
52.3226
 30
0.0
 11
280.512
 21
55.1215
 31
0.0
  0
LINE
  8
0
 62
     0
 10
280.512
 20
55.1215
 30
0.0
 11
279.688
 21
55.1215
 31
0.0
  0
LINE
  8
0
 62
     0
 10
279.688
 20
55.1215
 30
0.0
 11
279.688
 21
58.3516
 31
0.0
  0
LINE
  8
0
 62
     0
 10
279.688
 20
58.3516
 30
0.0
 11
277.963
 21
58.3516
 31
0.0
  0
LINE
  8
0
 62
     0
 10
277.963
 20
58.3516
 30
0.0
 11
277.963
 21
59.2723
 31
0.0
  0
LINE
  8
0
 62
     0
 10
277.963
 20
59.2723
 30
0.0
 11
274.662
 21
59.2723
 31
0.0
  0
LINE
  8
0
 62
     0
 10
274.662
 20
59.2723
 30
0.0
 11
274.662
 21
58.3516
 31
0.0
  0
LINE
  8
0
 62
     0
 10
274.662
 20
58.3516
 30
0.0
 11
272.937
 21
58.3516
 31
0.0
  0
LINE
  8
0
 62
     0
 10
272.937
 20
58.3516
 30
0.0
 11
272.937
 21
55.1215
 31
0.0
  0
LINE
  8
0
 62
     0
 10
272.937
 20
55.1215
 30
0.0
 11
271.413
 21
55.1215
 31
0.0
  0
LINE
  8
0
 62
     0
 10
271.413
 20
55.1215
 30
0.0
 11
271.413
 21
59.8219
 31
0.0
  0
LINE
  8
0
 62
     0
 10
271.413
 20
59.8219
 30
0.0
 11
257.412
 21
59.8219
 31
0.0
  0
LINE
  8
0
 62
     0
 10
9.76203
 20
59.8219
 30
0.0
 11
23.7629
 21
59.8219
 31
0.0
  0
LINE
  8
0
 62
     0
 10
23.7629
 20
59.8219
 30
0.0
 11
23.7629
 21
45.8227
 31
0.0
  0
LINE
  8
0
 62
     0
 10
23.7629
 20
45.8227
 30
0.0
 11
9.76203
 21
45.8227
 31
0.0
  0
LINE
  8
0
 62
     0
 10
9.76203
 20
45.8227
 30
0.0
 11
9.76203
 21
59.8219
 31
0.0
  0
LINE
  8
0
 62
     0
 10
35.9572
 20
59.8219
 30
0.0
 11
49.9565
 21
59.8219
 31
0.0
  0
LINE
  8
0
 62
     0
 10
49.9565
 20
59.8219
 30
0.0
 11
49.9565
 21
45.8227
 31
0.0
  0
LINE
  8
0
 62
     0
 10
49.9565
 20
45.8227
 30
0.0
 11
35.9572
 21
45.8227
 31
0.0
  0
LINE
  8
0
 62
     0
 10
35.9572
 20
45.8227
 30
0.0
 11
35.9572
 21
59.8219
 31
0.0
  0
LINE
  8
0
 62
     0
 10
55.0072
 20
59.8219
 30
0.0
 11
69.0065
 21
59.8219
 31
0.0
  0
LINE
  8
0
 62
     0
 10
69.0065
 20
59.8219
 30
0.0
 11
69.0065
 21
45.8227
 31
0.0
  0
LINE
  8
0
 62
     0
 10
69.0065
 20
45.8227
 30
0.0
 11
55.0072
 21
45.8227
 31
0.0
  0
LINE
  8
0
 62
     0
 10
55.0072
 20
45.8227
 30
0.0
 11
55.0072
 21
59.8219
 31
0.0
  0
LINE
  8
0
 62
     0
 10
74.0572
 20
59.8219
 30
0.0
 11
88.0565
 21
59.8219
 31
0.0
  0
LINE
  8
0
 62
     0
 10
88.0565
 20
59.8219
 30
0.0
 11
88.0565
 21
45.8227
 31
0.0
  0
LINE
  8
0
 62
     0
 10
88.0565
 20
45.8227
 30
0.0
 11
74.0572
 21
45.8227
 31
0.0
  0
LINE
  8
0
 62
     0
 10
74.0572
 20
45.8227
 30
0.0
 11
74.0572
 21
59.8219
 31
0.0
  0
LINE
  8
0
 62
     0
 10
93.1072
 20
59.8219
 30
0.0
 11
107.107
 21
59.8219
 31
0.0
  0
LINE
  8
0
 62
     0
 10
107.107
 20
59.8219
 30
0.0
 11
107.107
 21
45.8227
 31
0.0
  0
LINE
  8
0
 62
     0
 10
107.107
 20
45.8227
 30
0.0
 11
93.1072
 21
45.8227
 31
0.0
  0
LINE
  8
0
 62
     0
 10
93.1072
 20
45.8227
 30
0.0
 11
93.1072
 21
59.8219
 31
0.0
  0
LINE
  8
0
 62
     0
 10
112.157
 20
59.8219
 30
0.0
 11
126.157
 21
59.8219
 31
0.0
  0
LINE
  8
0
 62
     0
 10
126.157
 20
59.8219
 30
0.0
 11
126.157
 21
45.8227
 31
0.0
  0
LINE
  8
0
 62
     0
 10
126.157
 20
45.8227
 30
0.0
 11
112.157
 21
45.8227
 31
0.0
  0
LINE
  8
0
 62
     0
 10
112.157
 20
45.8227
 30
0.0
 11
112.157
 21
59.8219
 31
0.0
  0
LINE
  8
0
 62
     0
 10
131.207
 20
59.8219
 30
0.0
 11
145.207
 21
59.8219
 31
0.0
  0
LINE
  8
0
 62
     0
 10
145.207
 20
59.8219
 30
0.0
 11
145.207
 21
45.8227
 31
0.0
  0
LINE
  8
0
 62
     0
 10
145.207
 20
45.8227
 30
0.0
 11
131.207
 21
45.8227
 31
0.0
  0
LINE
  8
0
 62
     0
 10
131.207
 20
45.8227
 30
0.0
 11
131.207
 21
59.8219
 31
0.0
  0
LINE
  8
0
 62
     0
 10
150.257
 20
59.8219
 30
0.0
 11
164.257
 21
59.8219
 31
0.0
  0
LINE
  8
0
 62
     0
 10
164.257
 20
59.8219
 30
0.0
 11
164.257
 21
45.8227
 31
0.0
  0
LINE
  8
0
 62
     0
 10
164.257
 20
45.8227
 30
0.0
 11
150.257
 21
45.8227
 31
0.0
  0
LINE
  8
0
 62
     0
 10
150.257
 20
45.8227
 30
0.0
 11
150.257
 21
59.8219
 31
0.0
  0
LINE
  8
0
 62
     0
 10
169.307
 20
59.8219
 30
0.0
 11
183.307
 21
59.8219
 31
0.0
  0
LINE
  8
0
 62
     0
 10
183.307
 20
59.8219
 30
0.0
 11
183.307
 21
45.8227
 31
0.0
  0
LINE
  8
0
 62
     0
 10
183.307
 20
45.8227
 30
0.0
 11
169.307
 21
45.8227
 31
0.0
  0
LINE
  8
0
 62
     0
 10
169.307
 20
45.8227
 30
0.0
 11
169.307
 21
59.8219
 31
0.0
  0
LINE
  8
0
 62
     0
 10
188.357
 20
59.8219
 30
0.0
 11
202.357
 21
59.8219
 31
0.0
  0
LINE
  8
0
 62
     0
 10
202.357
 20
59.8219
 30
0.0
 11
202.357
 21
45.8227
 31
0.0
  0
LINE
  8
0
 62
     0
 10
202.357
 20
45.8227
 30
0.0
 11
188.357
 21
45.8227
 31
0.0
  0
LINE
  8
0
 62
     0
 10
188.357
 20
45.8227
 30
0.0
 11
188.357
 21
59.8219
 31
0.0
  0
LINE
  8
0
 62
     0
 10
207.407
 20
59.8219
 30
0.0
 11
221.407
 21
59.8219
 31
0.0
  0
LINE
  8
0
 62
     0
 10
221.407
 20
59.8219
 30
0.0
 11
221.407
 21
45.8227
 31
0.0
  0
LINE
  8
0
 62
     0
 10
221.407
 20
45.8227
 30
0.0
 11
207.407
 21
45.8227
 31
0.0
  0
LINE
  8
0
 62
     0
 10
207.407
 20
45.8227
 30
0.0
 11
207.407
 21
59.8219
 31
0.0
  0
LINE
  8
0
 62
     0
 10
226.457
 20
59.8219
 30
0.0
 11
240.457
 21
59.8219
 31
0.0
  0
LINE
  8
0
 62
     0
 10
240.457
 20
59.8219
 30
0.0
 11
240.457
 21
45.8227
 31
0.0
  0
LINE
  8
0
 62
     0
 10
240.457
 20
45.8227
 30
0.0
 11
226.457
 21
45.8227
 31
0.0
  0
LINE
  8
0
 62
     0
 10
226.457
 20
45.8227
 30
0.0
 11
226.457
 21
59.8219
 31
0.0
  0
LINE
  8
0
 62
     0
 10
297.895
 20
59.8219
 30
0.0
 11
311.894
 21
59.8219
 31
0.0
  0
LINE
  8
0
 62
     0
 10
311.894
 20
59.8219
 30
0.0
 11
311.894
 21
45.8227
 31
0.0
  0
LINE
  8
0
 62
     0
 10
311.894
 20
45.8227
 30
0.0
 11
297.895
 21
45.8227
 31
0.0
  0
LINE
  8
0
 62
     0
 10
297.895
 20
45.8227
 30
0.0
 11
297.895
 21
59.8219
 31
0.0
  0
LINE
  8
0
 62
     0
 10
7.38216
 20
78.8719
 30
0.0
 11
21.3817
 21
78.8719
 31
0.0
  0
LINE
  8
0
 62
     0
 10
21.3817
 20
78.8719
 30
0.0
 11
21.3817
 21
64.8727
 31
0.0
  0
LINE
  8
0
 62
     0
 10
21.3817
 20
64.8727
 30
0.0
 11
7.38216
 21
64.8727
 31
0.0
  0
LINE
  8
0
 62
     0
 10
7.38216
 20
64.8727
 30
0.0
 11
7.38216
 21
78.8719
 31
0.0
  0
LINE
  8
0
 62
     0
 10
31.1947
 20
78.8719
 30
0.0
 11
45.194
 21
78.8719
 31
0.0
  0
LINE
  8
0
 62
     0
 10
45.194
 20
78.8719
 30
0.0
 11
45.194
 21
64.8727
 31
0.0
  0
LINE
  8
0
 62
     0
 10
45.194
 20
64.8727
 30
0.0
 11
31.1947
 21
64.8727
 31
0.0
  0
LINE
  8
0
 62
     0
 10
31.1947
 20
64.8727
 30
0.0
 11
31.1947
 21
78.8719
 31
0.0
  0
LINE
  8
0
 62
     0
 10
50.2447
 20
78.8719
 30
0.0
 11
64.244
 21
78.8719
 31
0.0
  0
LINE
  8
0
 62
     0
 10
64.244
 20
78.8719
 30
0.0
 11
64.244
 21
64.8727
 31
0.0
  0
LINE
  8
0
 62
     0
 10
64.244
 20
64.8727
 30
0.0
 11
50.2447
 21
64.8727
 31
0.0
  0
LINE
  8
0
 62
     0
 10
50.2447
 20
64.8727
 30
0.0
 11
50.2447
 21
78.8719
 31
0.0
  0
LINE
  8
0
 62
     0
 10
69.2947
 20
78.8719
 30
0.0
 11
83.294
 21
78.8719
 31
0.0
  0
LINE
  8
0
 62
     0
 10
83.294
 20
78.8719
 30
0.0
 11
83.294
 21
64.8727
 31
0.0
  0
LINE
  8
0
 62
     0
 10
83.294
 20
64.8727
 30
0.0
 11
69.2947
 21
64.8727
 31
0.0
  0
LINE
  8
0
 62
     0
 10
69.2947
 20
64.8727
 30
0.0
 11
69.2947
 21
78.8719
 31
0.0
  0
LINE
  8
0
 62
     0
 10
88.3447
 20
78.8719
 30
0.0
 11
102.344
 21
78.8719
 31
0.0
  0
LINE
  8
0
 62
     0
 10
102.344
 20
78.8719
 30
0.0
 11
102.344
 21
64.8727
 31
0.0
  0
LINE
  8
0
 62
     0
 10
102.344
 20
64.8727
 30
0.0
 11
88.3447
 21
64.8727
 31
0.0
  0
LINE
  8
0
 62
     0
 10
88.3447
 20
64.8727
 30
0.0
 11
88.3447
 21
78.8719
 31
0.0
  0
LINE
  8
0
 62
     0
 10
107.395
 20
78.8719
 30
0.0
 11
121.394
 21
78.8719
 31
0.0
  0
LINE
  8
0
 62
     0
 10
121.394
 20
78.8719
 30
0.0
 11
121.394
 21
64.8727
 31
0.0
  0
LINE
  8
0
 62
     0
 10
121.394
 20
64.8727
 30
0.0
 11
107.395
 21
64.8727
 31
0.0
  0
LINE
  8
0
 62
     0
 10
107.395
 20
64.8727
 30
0.0
 11
107.395
 21
78.8719
 31
0.0
  0
LINE
  8
0
 62
     0
 10
126.445
 20
78.8719
 30
0.0
 11
140.444
 21
78.8719
 31
0.0
  0
LINE
  8
0
 62
     0
 10
140.444
 20
78.8719
 30
0.0
 11
140.444
 21
64.8727
 31
0.0
  0
LINE
  8
0
 62
     0
 10
140.444
 20
64.8727
 30
0.0
 11
126.445
 21
64.8727
 31
0.0
  0
LINE
  8
0
 62
     0
 10
126.445
 20
64.8727
 30
0.0
 11
126.445
 21
78.8719
 31
0.0
  0
LINE
  8
0
 62
     0
 10
145.495
 20
78.8719
 30
0.0
 11
159.494
 21
78.8719
 31
0.0
  0
LINE
  8
0
 62
     0
 10
159.494
 20
78.8719
 30
0.0
 11
159.494
 21
64.8727
 31
0.0
  0
LINE
  8
0
 62
     0
 10
159.494
 20
64.8727
 30
0.0
 11
145.495
 21
64.8727
 31
0.0
  0
LINE
  8
0
 62
     0
 10
145.495
 20
64.8727
 30
0.0
 11
145.495
 21
78.8719
 31
0.0
  0
LINE
  8
0
 62
     0
 10
164.545
 20
78.8719
 30
0.0
 11
178.544
 21
78.8719
 31
0.0
  0
LINE
  8
0
 62
     0
 10
178.544
 20
78.8719
 30
0.0
 11
178.544
 21
64.8727
 31
0.0
  0
LINE
  8
0
 62
     0
 10
178.544
 20
64.8727
 30
0.0
 11
164.545
 21
64.8727
 31
0.0
  0
LINE
  8
0
 62
     0
 10
164.545
 20
64.8727
 30
0.0
 11
164.545
 21
78.8719
 31
0.0
  0
LINE
  8
0
 62
     0
 10
183.595
 20
78.8719
 30
0.0
 11
197.594
 21
78.8719
 31
0.0
  0
LINE
  8
0
 62
     0
 10
197.594
 20
78.8719
 30
0.0
 11
197.594
 21
64.8727
 31
0.0
  0
LINE
  8
0
 62
     0
 10
197.594
 20
64.8727
 30
0.0
 11
183.595
 21
64.8727
 31
0.0
  0
LINE
  8
0
 62
     0
 10
183.595
 20
64.8727
 30
0.0
 11
183.595
 21
78.8719
 31
0.0
  0
LINE
  8
0
 62
     0
 10
202.645
 20
78.8719
 30
0.0
 11
216.644
 21
78.8719
 31
0.0
  0
LINE
  8
0
 62
     0
 10
216.644
 20
78.8719
 30
0.0
 11
216.644
 21
64.8727
 31
0.0
  0
LINE
  8
0
 62
     0
 10
216.644
 20
64.8727
 30
0.0
 11
202.645
 21
64.8727
 31
0.0
  0
LINE
  8
0
 62
     0
 10
202.645
 20
64.8727
 30
0.0
 11
202.645
 21
78.8719
 31
0.0
  0
LINE
  8
0
 62
     0
 10
221.695
 20
78.8719
 30
0.0
 11
235.694
 21
78.8719
 31
0.0
  0
LINE
  8
0
 62
     0
 10
235.694
 20
78.8719
 30
0.0
 11
235.694
 21
64.8727
 31
0.0
  0
LINE
  8
0
 62
     0
 10
235.694
 20
64.8727
 30
0.0
 11
221.695
 21
64.8727
 31
0.0
  0
LINE
  8
0
 62
     0
 10
221.695
 20
64.8727
 30
0.0
 11
221.695
 21
78.8719
 31
0.0
  0
LINE
  8
0
 62
     0
 10
240.745
 20
78.8719
 30
0.0
 11
254.744
 21
78.8719
 31
0.0
  0
LINE
  8
0
 62
     0
 10
254.744
 20
78.8719
 30
0.0
 11
254.744
 21
64.8727
 31
0.0
  0
LINE
  8
0
 62
     0
 10
254.744
 20
64.8727
 30
0.0
 11
240.745
 21
64.8727
 31
0.0
  0
LINE
  8
0
 62
     0
 10
240.745
 20
64.8727
 30
0.0
 11
240.745
 21
78.8719
 31
0.0
  0
LINE
  8
0
 62
     0
 10
264.557
 20
78.8719
 30
0.0
 11
278.557
 21
78.8719
 31
0.0
  0
LINE
  8
0
 62
     0
 10
278.557
 20
78.8719
 30
0.0
 11
278.557
 21
64.8727
 31
0.0
  0
LINE
  8
0
 62
     0
 10
278.557
 20
64.8727
 30
0.0
 11
264.557
 21
64.8727
 31
0.0
  0
LINE
  8
0
 62
     0
 10
264.557
 20
64.8727
 30
0.0
 11
264.557
 21
78.8719
 31
0.0
  0
LINE
  8
0
 62
     0
 10
297.895
 20
78.8719
 30
0.0
 11
311.894
 21
78.8719
 31
0.0
  0
LINE
  8
0
 62
     0
 10
311.894
 20
78.8719
 30
0.0
 11
311.894
 21
64.8727
 31
0.0
  0
LINE
  8
0
 62
     0
 10
311.894
 20
64.8727
 30
0.0
 11
297.895
 21
64.8727
 31
0.0
  0
LINE
  8
0
 62
     0
 10
297.895
 20
64.8727
 30
0.0
 11
297.895
 21
78.8719
 31
0.0
  0
LINE
  8
0
 62
     0
 10
259.795
 20
97.9219
 30
0.0
 11
259.795
 21
93.2215
 31
0.0
  0
LINE
  8
0
 62
     0
 10
259.795
 20
93.2215
 30
0.0
 11
258.269
 21
93.2215
 31
0.0
  0
LINE
  8
0
 62
     0
 10
258.269
 20
93.2215
 30
0.0
 11
258.269
 21
96.4516
 31
0.0
  0
LINE
  8
0
 62
     0
 10
258.269
 20
96.4516
 30
0.0
 11
256.544
 21
96.4516
 31
0.0
  0
LINE
  8
0
 62
     0
 10
256.544
 20
96.4516
 30
0.0
 11
256.544
 21
97.3723
 31
0.0
  0
LINE
  8
0
 62
     0
 10
256.544
 20
97.3723
 30
0.0
 11
253.243
 21
97.3723
 31
0.0
  0
LINE
  8
0
 62
     0
 10
253.243
 20
97.3723
 30
0.0
 11
253.243
 21
96.4516
 31
0.0
  0
LINE
  8
0
 62
     0
 10
253.243
 20
96.4516
 30
0.0
 11
251.52
 21
96.4516
 31
0.0
  0
LINE
  8
0
 62
     0
 10
251.52
 20
96.4516
 30
0.0
 11
251.52
 21
93.2215
 31
0.0
  0
LINE
  8
0
 62
     0
 10
251.52
 20
93.2215
 30
0.0
 11
250.694
 21
93.2215
 31
0.0
  0
LINE
  8
0
 62
     0
 10
250.694
 20
93.2215
 30
0.0
 11
250.694
 21
90.4226
 31
0.0
  0
LINE
  8
0
 62
     0
 10
250.694
 20
90.4226
 30
0.0
 11
251.52
 21
90.4226
 31
0.0
  0
LINE
  8
0
 62
     0
 10
251.52
 20
90.4226
 30
0.0
 11
251.52
 21
84.1527
 31
0.0
  0
LINE
  8
0
 62
     0
 10
251.52
 20
84.1527
 30
0.0
 11
253.243
 21
84.1527
 31
0.0
  0
LINE
  8
0
 62
     0
 10
253.243
 20
84.1527
 30
0.0
 11
253.243
 21
83.1716
 31
0.0
  0
LINE
  8
0
 62
     0
 10
253.243
 20
83.1716
 30
0.0
 11
256.544
 21
83.1716
 31
0.0
  0
LINE
  8
0
 62
     0
 10
256.544
 20
83.1716
 30
0.0
 11
256.544
 21
84.1527
 31
0.0
  0
LINE
  8
0
 62
     0
 10
256.544
 20
84.1527
 30
0.0
 11
258.269
 21
84.1527
 31
0.0
  0
LINE
  8
0
 62
     0
 10
258.269
 20
84.1527
 30
0.0
 11
258.269
 21
88.6217
 31
0.0
  0
LINE
  8
0
 62
     0
 10
258.269
 20
88.6217
 30
0.0
 11
259.795
 21
88.6217
 31
0.0
  0
LINE
  8
0
 62
     0
 10
259.795
 20
88.6217
 30
0.0
 11
259.795
 21
83.9227
 31
0.0
  0
LINE
  8
0
 62
     0
 10
259.795
 20
83.9227
 30
0.0
 11
273.794
 21
83.9227
 31
0.0
  0
LINE
  8
0
 62
     0
 10
273.794
 20
83.9227
 30
0.0
 11
273.794
 21
88.6217
 31
0.0
  0
LINE
  8
0
 62
     0
 10
273.794
 20
88.6217
 30
0.0
 11
275.32
 21
88.6217
 31
0.0
  0
LINE
  8
0
 62
     0
 10
275.32
 20
88.6217
 30
0.0
 11
275.32
 21
84.1527
 31
0.0
  0
LINE
  8
0
 62
     0
 10
275.32
 20
84.1527
 30
0.0
 11
277.045
 21
84.1527
 31
0.0
  0
LINE
  8
0
 62
     0
 10
277.045
 20
84.1527
 30
0.0
 11
277.045
 21
83.1716
 31
0.0
  0
LINE
  8
0
 62
     0
 10
277.045
 20
83.1716
 30
0.0
 11
280.344
 21
83.1716
 31
0.0
  0
LINE
  8
0
 62
     0
 10
280.344
 20
83.1716
 30
0.0
 11
280.344
 21
84.1527
 31
0.0
  0
LINE
  8
0
 62
     0
 10
280.344
 20
84.1527
 30
0.0
 11
282.069
 21
84.1527
 31
0.0
  0
LINE
  8
0
 62
     0
 10
282.069
 20
84.1527
 30
0.0
 11
282.069
 21
90.4226
 31
0.0
  0
LINE
  8
0
 62
     0
 10
282.069
 20
90.4226
 30
0.0
 11
282.895
 21
90.4226
 31
0.0
  0
LINE
  8
0
 62
     0
 10
282.895
 20
90.4226
 30
0.0
 11
282.895
 21
93.2215
 31
0.0
  0
LINE
  8
0
 62
     0
 10
282.895
 20
93.2215
 30
0.0
 11
282.069
 21
93.2215
 31
0.0
  0
LINE
  8
0
 62
     0
 10
282.069
 20
93.2215
 30
0.0
 11
282.069
 21
96.4516
 31
0.0
  0
LINE
  8
0
 62
     0
 10
282.069
 20
96.4516
 30
0.0
 11
280.344
 21
96.4516
 31
0.0
  0
LINE
  8
0
 62
     0
 10
280.344
 20
96.4516
 30
0.0
 11
280.344
 21
97.3723
 31
0.0
  0
LINE
  8
0
 62
     0
 10
280.344
 20
97.3723
 30
0.0
 11
277.045
 21
97.3723
 31
0.0
  0
LINE
  8
0
 62
     0
 10
277.045
 20
97.3723
 30
0.0
 11
277.045
 21
96.4516
 31
0.0
  0
LINE
  8
0
 62
     0
 10
277.045
 20
96.4516
 30
0.0
 11
275.32
 21
96.4516
 31
0.0
  0
LINE
  8
0
 62
     0
 10
275.32
 20
96.4516
 30
0.0
 11
275.32
 21
93.2215
 31
0.0
  0
LINE
  8
0
 62
     0
 10
275.32
 20
93.2215
 30
0.0
 11
273.794
 21
93.2215
 31
0.0
  0
LINE
  8
0
 62
     0
 10
273.794
 20
93.2215
 30
0.0
 11
273.794
 21
97.9219
 31
0.0
  0
LINE
  8
0
 62
     0
 10
273.794
 20
97.9219
 30
0.0
 11
259.795
 21
97.9219
 31
0.0
  0
LINE
  8
0
 62
     0
 10
2.61965
 20
97.9219
 30
0.0
 11
16.6192
 21
97.9219
 31
0.0
  0
LINE
  8
0
 62
     0
 10
16.6192
 20
97.9219
 30
0.0
 11
16.6192
 21
83.9227
 31
0.0
  0
LINE
  8
0
 62
     0
 10
16.6192
 20
83.9227
 30
0.0
 11
2.61965
 21
83.9227
 31
0.0
  0
LINE
  8
0
 62
     0
 10
2.61965
 20
83.9227
 30
0.0
 11
2.61965
 21
97.9219
 31
0.0
  0
LINE
  8
0
 62
     0
 10
21.6697
 20
97.9219
 30
0.0
 11
35.669
 21
97.9219
 31
0.0
  0
LINE
  8
0
 62
     0
 10
35.669
 20
97.9219
 30
0.0
 11
35.669
 21
83.9227
 31
0.0
  0
LINE
  8
0
 62
     0
 10
35.669
 20
83.9227
 30
0.0
 11
21.6697
 21
83.9227
 31
0.0
  0
LINE
  8
0
 62
     0
 10
21.6697
 20
83.9227
 30
0.0
 11
21.6697
 21
97.9219
 31
0.0
  0
LINE
  8
0
 62
     0
 10
40.7197
 20
97.9219
 30
0.0
 11
54.719
 21
97.9219
 31
0.0
  0
LINE
  8
0
 62
     0
 10
54.719
 20
97.9219
 30
0.0
 11
54.719
 21
83.9227
 31
0.0
  0
LINE
  8
0
 62
     0
 10
54.719
 20
83.9227
 30
0.0
 11
40.7197
 21
83.9227
 31
0.0
  0
LINE
  8
0
 62
     0
 10
40.7197
 20
83.9227
 30
0.0
 11
40.7197
 21
97.9219
 31
0.0
  0
LINE
  8
0
 62
     0
 10
59.7697
 20
97.9219
 30
0.0
 11
73.769
 21
97.9219
 31
0.0
  0
LINE
  8
0
 62
     0
 10
73.769
 20
97.9219
 30
0.0
 11
73.769
 21
83.9227
 31
0.0
  0
LINE
  8
0
 62
     0
 10
73.769
 20
83.9227
 30
0.0
 11
59.7697
 21
83.9227
 31
0.0
  0
LINE
  8
0
 62
     0
 10
59.7697
 20
83.9227
 30
0.0
 11
59.7697
 21
97.9219
 31
0.0
  0
LINE
  8
0
 62
     0
 10
78.8197
 20
97.9219
 30
0.0
 11
92.819
 21
97.9219
 31
0.0
  0
LINE
  8
0
 62
     0
 10
92.819
 20
97.9219
 30
0.0
 11
92.819
 21
83.9227
 31
0.0
  0
LINE
  8
0
 62
     0
 10
92.819
 20
83.9227
 30
0.0
 11
78.8197
 21
83.9227
 31
0.0
  0
LINE
  8
0
 62
     0
 10
78.8197
 20
83.9227
 30
0.0
 11
78.8197
 21
97.9219
 31
0.0
  0
LINE
  8
0
 62
     0
 10
97.8683
 20
97.9219
 30
0.0
 11
111.869
 21
97.9219
 31
0.0
  0
LINE
  8
0
 62
     0
 10
111.869
 20
97.9219
 30
0.0
 11
111.869
 21
83.9227
 31
0.0
  0
LINE
  8
0
 62
     0
 10
111.869
 20
83.9227
 30
0.0
 11
97.8683
 21
83.9227
 31
0.0
  0
LINE
  8
0
 62
     0
 10
97.8683
 20
83.9227
 30
0.0
 11
97.8683
 21
97.9219
 31
0.0
  0
LINE
  8
0
 62
     0
 10
116.918
 20
97.9219
 30
0.0
 11
130.919
 21
97.9219
 31
0.0
  0
LINE
  8
0
 62
     0
 10
130.919
 20
97.9219
 30
0.0
 11
130.919
 21
83.9227
 31
0.0
  0
LINE
  8
0
 62
     0
 10
130.919
 20
83.9227
 30
0.0
 11
116.918
 21
83.9227
 31
0.0
  0
LINE
  8
0
 62
     0
 10
116.918
 20
83.9227
 30
0.0
 11
116.918
 21
97.9219
 31
0.0
  0
LINE
  8
0
 62
     0
 10
135.97
 20
97.9219
 30
0.0
 11
149.969
 21
97.9219
 31
0.0
  0
LINE
  8
0
 62
     0
 10
149.969
 20
97.9219
 30
0.0
 11
149.969
 21
83.9227
 31
0.0
  0
LINE
  8
0
 62
     0
 10
149.969
 20
83.9227
 30
0.0
 11
135.97
 21
83.9227
 31
0.0
  0
LINE
  8
0
 62
     0
 10
135.97
 20
83.9227
 30
0.0
 11
135.97
 21
97.9219
 31
0.0
  0
LINE
  8
0
 62
     0
 10
155.02
 20
97.9219
 30
0.0
 11
169.019
 21
97.9219
 31
0.0
  0
LINE
  8
0
 62
     0
 10
169.019
 20
97.9219
 30
0.0
 11
169.019
 21
83.9227
 31
0.0
  0
LINE
  8
0
 62
     0
 10
169.019
 20
83.9227
 30
0.0
 11
155.02
 21
83.9227
 31
0.0
  0
LINE
  8
0
 62
     0
 10
155.02
 20
83.9227
 30
0.0
 11
155.02
 21
97.9219
 31
0.0
  0
LINE
  8
0
 62
     0
 10
174.07
 20
97.9219
 30
0.0
 11
188.069
 21
97.9219
 31
0.0
  0
LINE
  8
0
 62
     0
 10
188.069
 20
97.9219
 30
0.0
 11
188.069
 21
83.9227
 31
0.0
  0
LINE
  8
0
 62
     0
 10
188.069
 20
83.9227
 30
0.0
 11
174.07
 21
83.9227
 31
0.0
  0
LINE
  8
0
 62
     0
 10
174.07
 20
83.9227
 30
0.0
 11
174.07
 21
97.9219
 31
0.0
  0
LINE
  8
0
 62
     0
 10
193.12
 20
97.9219
 30
0.0
 11
207.119
 21
97.9219
 31
0.0
  0
LINE
  8
0
 62
     0
 10
207.119
 20
97.9219
 30
0.0
 11
207.119
 21
83.9227
 31
0.0
  0
LINE
  8
0
 62
     0
 10
207.119
 20
83.9227
 30
0.0
 11
193.12
 21
83.9227
 31
0.0
  0
LINE
  8
0
 62
     0
 10
193.12
 20
83.9227
 30
0.0
 11
193.12
 21
97.9219
 31
0.0
  0
LINE
  8
0
 62
     0
 10
212.17
 20
97.9219
 30
0.0
 11
226.169
 21
97.9219
 31
0.0
  0
LINE
  8
0
 62
     0
 10
226.169
 20
97.9219
 30
0.0
 11
226.169
 21
83.9227
 31
0.0
  0
LINE
  8
0
 62
     0
 10
226.169
 20
83.9227
 30
0.0
 11
212.17
 21
83.9227
 31
0.0
  0
LINE
  8
0
 62
     0
 10
212.17
 20
83.9227
 30
0.0
 11
212.17
 21
97.9219
 31
0.0
  0
LINE
  8
0
 62
     0
 10
231.22
 20
97.9219
 30
0.0
 11
245.219
 21
97.9219
 31
0.0
  0
LINE
  8
0
 62
     0
 10
245.219
 20
97.9219
 30
0.0
 11
245.219
 21
83.9227
 31
0.0
  0
LINE
  8
0
 62
     0
 10
245.219
 20
83.9227
 30
0.0
 11
231.22
 21
83.9227
 31
0.0
  0
LINE
  8
0
 62
     0
 10
231.22
 20
83.9227
 30
0.0
 11
231.22
 21
97.9219
 31
0.0
  0
LINE
  8
0
 62
     0
 10
297.895
 20
97.9219
 30
0.0
 11
311.894
 21
97.9219
 31
0.0
  0
LINE
  8
0
 62
     0
 10
311.894
 20
97.9219
 30
0.0
 11
311.894
 21
83.9227
 31
0.0
  0
LINE
  8
0
 62
     0
 10
311.894
 20
83.9227
 30
0.0
 11
297.895
 21
83.9227
 31
0.0
  0
LINE
  8
0
 62
     0
 10
297.895
 20
83.9227
 30
0.0
 11
297.895
 21
97.9219
 31
0.0
  0
LINE
  8
0
 62
     0
 10
2.61965
 20
121.734
 30
0.0
 11
16.6192
 21
121.734
 31
0.0
  0
LINE
  8
0
 62
     0
 10
16.6192
 20
121.734
 30
0.0
 11
16.6192
 21
107.735
 31
0.0
  0
LINE
  8
0
 62
     0
 10
16.6192
 20
107.735
 30
0.0
 11
2.61965
 21
107.735
 31
0.0
  0
LINE
  8
0
 62
     0
 10
2.61965
 20
107.735
 30
0.0
 11
2.61965
 21
121.734
 31
0.0
  0
LINE
  8
0
 62
     0
 10
69.2947
 20
121.734
 30
0.0
 11
83.294
 21
121.734
 31
0.0
  0
LINE
  8
0
 62
     0
 10
83.294
 20
121.734
 30
0.0
 11
83.294
 21
107.735
 31
0.0
  0
LINE
  8
0
 62
     0
 10
83.294
 20
107.735
 30
0.0
 11
69.2947
 21
107.735
 31
0.0
  0
LINE
  8
0
 62
     0
 10
69.2947
 20
107.735
 30
0.0
 11
69.2947
 21
121.734
 31
0.0
  0
LINE
  8
0
 62
     0
 10
88.3447
 20
121.734
 30
0.0
 11
102.344
 21
121.734
 31
0.0
  0
LINE
  8
0
 62
     0
 10
102.344
 20
121.734
 30
0.0
 11
102.344
 21
107.735
 31
0.0
  0
LINE
  8
0
 62
     0
 10
102.344
 20
107.735
 30
0.0
 11
88.3447
 21
107.735
 31
0.0
  0
LINE
  8
0
 62
     0
 10
88.3447
 20
107.735
 30
0.0
 11
88.3447
 21
121.734
 31
0.0
  0
LINE
  8
0
 62
     0
 10
107.395
 20
121.734
 30
0.0
 11
121.394
 21
121.734
 31
0.0
  0
LINE
  8
0
 62
     0
 10
121.394
 20
121.734
 30
0.0
 11
121.394
 21
107.735
 31
0.0
  0
LINE
  8
0
 62
     0
 10
121.394
 20
107.735
 30
0.0
 11
107.395
 21
107.735
 31
0.0
  0
LINE
  8
0
 62
     0
 10
107.395
 20
107.735
 30
0.0
 11
107.395
 21
121.734
 31
0.0
  0
LINE
  8
0
 62
     0
 10
126.445
 20
121.734
 30
0.0
 11
140.444
 21
121.734
 31
0.0
  0
LINE
  8
0
 62
     0
 10
140.444
 20
121.734
 30
0.0
 11
140.444
 21
107.735
 31
0.0
  0
LINE
  8
0
 62
     0
 10
140.444
 20
107.735
 30
0.0
 11
126.445
 21
107.735
 31
0.0
  0
LINE
  8
0
 62
     0
 10
126.445
 20
107.735
 30
0.0
 11
126.445
 21
121.734
 31
0.0
  0
LINE
  8
0
 62
     0
 10
145.495
 20
121.734
 30
0.0
 11
159.494
 21
121.734
 31
0.0
  0
LINE
  8
0
 62
     0
 10
159.494
 20
121.734
 30
0.0
 11
159.494
 21
107.735
 31
0.0
  0
LINE
  8
0
 62
     0
 10
159.494
 20
107.735
 30
0.0
 11
145.495
 21
107.735
 31
0.0
  0
LINE
  8
0
 62
     0
 10
145.495
 20
107.735
 30
0.0
 11
145.495
 21
121.734
 31
0.0
  0
LINE
  8
0
 62
     0
 10
169.307
 20
121.734
 30
0.0
 11
183.307
 21
121.734
 31
0.0
  0
LINE
  8
0
 62
     0
 10
183.307
 20
121.734
 30
0.0
 11
183.307
 21
107.735
 31
0.0
  0
LINE
  8
0
 62
     0
 10
183.307
 20
107.735
 30
0.0
 11
169.307
 21
107.735
 31
0.0
  0
LINE
  8
0
 62
     0
 10
169.307
 20
107.735
 30
0.0
 11
169.307
 21
121.734
 31
0.0
  0
LINE
  8
0
 62
     0
 10
188.357
 20
121.734
 30
0.0
 11
202.357
 21
121.734
 31
0.0
  0
LINE
  8
0
 62
     0
 10
202.357
 20
121.734
 30
0.0
 11
202.357
 21
107.735
 31
0.0
  0
LINE
  8
0
 62
     0
 10
202.357
 20
107.735
 30
0.0
 11
188.357
 21
107.735
 31
0.0
  0
LINE
  8
0
 62
     0
 10
188.357
 20
107.735
 30
0.0
 11
188.357
 21
121.734
 31
0.0
  0
LINE
  8
0
 62
     0
 10
207.407
 20
121.734
 30
0.0
 11
221.407
 21
121.734
 31
0.0
  0
LINE
  8
0
 62
     0
 10
221.407
 20
121.734
 30
0.0
 11
221.407
 21
107.735
 31
0.0
  0
LINE
  8
0
 62
     0
 10
221.407
 20
107.735
 30
0.0
 11
207.407
 21
107.735
 31
0.0
  0
LINE
  8
0
 62
     0
 10
207.407
 20
107.735
 30
0.0
 11
207.407
 21
121.734
 31
0.0
  0
LINE
  8
0
 62
     0
 10
226.457
 20
121.734
 30
0.0
 11
240.457
 21
121.734
 31
0.0
  0
LINE
  8
0
 62
     0
 10
240.457
 20
121.734
 30
0.0
 11
240.457
 21
107.735
 31
0.0
  0
LINE
  8
0
 62
     0
 10
240.457
 20
107.735
 30
0.0
 11
226.457
 21
107.735
 31
0.0
  0
LINE
  8
0
 62
     0
 10
226.457
 20
107.735
 30
0.0
 11
226.457
 21
121.734
 31
0.0
  0
LINE
  8
0
 62
     0
 10
245.507
 20
121.734
 30
0.0
 11
259.507
 21
121.734
 31
0.0
  0
LINE
  8
0
 62
     0
 10
259.507
 20
121.734
 30
0.0
 11
259.507
 21
107.735
 31
0.0
  0
LINE
  8
0
 62
     0
 10
259.507
 20
107.735
 30
0.0
 11
245.507
 21
107.735
 31
0.0
  0
LINE
  8
0
 62
     0
 10
245.507
 20
107.735
 30
0.0
 11
245.507
 21
121.734
 31
0.0
  0
LINE
  8
0
 62
     0
 10
269.32
 20
121.734
 30
0.0
 11
283.319
 21
121.734
 31
0.0
  0
LINE
  8
0
 62
     0
 10
283.319
 20
121.734
 30
0.0
 11
283.319
 21
107.735
 31
0.0
  0
LINE
  8
0
 62
     0
 10
283.319
 20
107.735
 30
0.0
 11
269.32
 21
107.735
 31
0.0
  0
LINE
  8
0
 62
     0
 10
269.32
 20
107.735
 30
0.0
 11
269.32
 21
121.734
 31
0.0
  0
ENDSEC
  0
EOF
